<svg xmlns="http://www.w3.org/2000/svg" viewBox="0 0 186 83.11">
<defs><style>.cls-1{fill:#fff;}.cls-2{fill:#1d1d1b;}</style></defs>
<path class="cls-1" d="M93.92,79.11c-44.43,0-78.4-26.67-88.21-35.29C15.27,34.31,49.22,4,93.78,4c29.79,0,58.82,13.4,86.33,39.83C152.72,67.25,123.74,79.11,93.92,79.11Z"/>
<path class="cls-2" d="M93.79,0V8c27.55,0,54.53,12,80.29,35.65-25.63,20.88-52.56,31.46-80.16,31.46-26.47,0-48.95-9.9-63.15-18.2A149.53,149.53,0,0,1,11.66,43.64,149.32,149.32,0,0,1,31,28.41C45.15,19.1,67.48,8,93.78,8V0m0,0C38.67,0,0,44,0,44S38.81,83.11,93.92,83.11c27.56,0,59.19-9.78,92.08-39.11C153,11,121.34,0,93.78,0Z"/>
<circle class="cls-2" cx="93" cy="37.17" r="32.17"/>
<path class="cls-2" d="M93,10A27.17,27.17,0,1,1,65.83,37.17h0A27.19,27.19,0,0,1,93,10M93,0a37.17,37.17,0,1,0,37.16,37.18h0A37.18,37.18,0,0,0,93,0Z"/>
</svg>